<svg width="133" height="24" viewBox="0 0 133 24" fill="none" xmlns="http://www.w3.org/2000/svg">
<path d="M6 22C5.45 22 4.97933 21.8043 4.588 21.413C4.19667 21.0217 4.00067 20.5507 4 20V10C4 9.45 4.196 8.97933 4.588 8.588C4.98 8.19667 5.45067 8.00067 6 8H7V6C7 4.61667 7.48767 3.43767 8.463 2.463C9.43833 1.48833 10.6173 1.00067 12 1C13.3827 0.999334 14.562 1.487 15.538 2.463C16.514 3.439 17.0013 4.618 17 6V8H18C18.55 8 19.021 8.196 19.413 8.588C19.805 8.98 20.0007 9.45067 20 10V20C20 20.55 19.8043 21.021 19.413 21.413C19.0217 21.805 18.5507 22.0007 18 22H6ZM12 17C12.55 17 13.021 16.8043 13.413 16.413C13.805 16.0217 14.0007 15.5507 14 15C13.9993 14.4493 13.8037 13.9787 13.413 13.588C13.0223 13.1973 12.5513 13.0013 12 13C11.4487 12.9987 10.978 13.1947 10.588 13.588C10.198 13.9813 10.002 14.452 10 15C9.998 15.548 10.194 16.019 10.588 16.413C10.982 16.807 11.4527 17.0027 12 17ZM9 8H15V6C15 5.16667 14.7083 4.45833 14.125 3.875C13.5417 3.29167 12.8333 3 12 3C11.1667 3 10.4583 3.29167 9.875 3.875C9.29167 4.45833 9 5.16667 9 6V8Z" fill="#181816"/>
<path d="M34.936 23.264C33.464 23.264 32.32 23.016 31.504 22.52C30.688 22.008 30.112 21.28 29.776 20.336C29.456 19.376 29.296 18.216 29.296 16.856V3.56H33.208V17.408C33.208 17.888 33.24 18.36 33.304 18.824C33.384 19.288 33.544 19.664 33.784 19.952C34.04 20.24 34.424 20.384 34.936 20.384C35.464 20.384 35.848 20.24 36.088 19.952C36.344 19.664 36.504 19.288 36.568 18.824C36.632 18.36 36.664 17.888 36.664 17.408V3.56H40.576V16.856C40.576 18.216 40.408 19.376 40.072 20.336C39.752 21.28 39.184 22.008 38.368 22.52C37.552 23.016 36.408 23.264 34.936 23.264ZM43.123 23V9.128H46.747V10.52C47.243 10.024 47.763 9.632 48.307 9.344C48.867 9.04 49.459 8.888 50.083 8.888C50.659 8.888 51.123 9.032 51.475 9.32C51.843 9.608 52.115 9.992 52.291 10.472C52.467 10.936 52.555 11.464 52.555 12.056V23H48.955V12.656C48.955 12.272 48.891 11.984 48.763 11.792C48.651 11.6 48.427 11.504 48.091 11.504C47.899 11.504 47.683 11.56 47.443 11.672C47.219 11.768 46.987 11.904 46.747 12.08V23H43.123ZM55.1269 23V3.56H58.7509V23H55.1269ZM65.6791 23.24C64.6871 23.24 63.8391 23.064 63.1351 22.712C62.4311 22.344 61.8951 21.816 61.5271 21.128C61.1751 20.44 60.9991 19.584 60.9991 18.56V13.568C60.9991 12.544 61.1751 11.688 61.5271 11C61.8951 10.312 62.4311 9.792 63.1351 9.44C63.8391 9.072 64.6871 8.888 65.6791 8.888C66.6711 8.888 67.5191 9.072 68.2231 9.44C68.9271 9.792 69.4631 10.312 69.8311 11C70.1991 11.688 70.3831 12.544 70.3831 13.568V18.56C70.3831 19.584 70.1991 20.44 69.8311 21.128C69.4631 21.816 68.9271 22.344 68.2231 22.712C67.5191 23.064 66.6711 23.24 65.6791 23.24ZM65.7031 20.792C66.0071 20.792 66.2391 20.712 66.3991 20.552C66.5591 20.376 66.6631 20.144 66.7111 19.856C66.7591 19.552 66.7831 19.208 66.7831 18.824V13.328C66.7831 12.928 66.7591 12.584 66.7111 12.296C66.6631 12.008 66.5591 11.776 66.3991 11.6C66.2391 11.424 66.0071 11.336 65.7031 11.336C65.3991 11.336 65.1671 11.424 65.0071 11.6C64.8471 11.776 64.7351 12.008 64.6711 12.296C64.6231 12.584 64.5991 12.928 64.5991 13.328V18.824C64.5991 19.208 64.6231 19.552 64.6711 19.856C64.7351 20.144 64.8471 20.376 65.0071 20.552C65.1671 20.712 65.3991 20.792 65.7031 20.792ZM76.9279 23.24C75.9039 23.24 75.0479 23.048 74.3599 22.664C73.6719 22.264 73.1519 21.704 72.7999 20.984C72.4639 20.264 72.2959 19.408 72.2959 18.416V13.736C72.2959 12.696 72.4639 11.824 72.7999 11.12C73.1519 10.4 73.6719 9.848 74.3599 9.464C75.0479 9.08 75.9039 8.888 76.9279 8.888C77.9199 8.888 78.7519 9.048 79.4239 9.368C80.0959 9.672 80.5919 10.136 80.9119 10.76C81.2479 11.384 81.4159 12.168 81.4159 13.112V14.432H77.9599V13.016C77.9599 12.6 77.9199 12.28 77.8399 12.056C77.7759 11.816 77.6639 11.648 77.5039 11.552C77.3599 11.456 77.1679 11.408 76.9279 11.408C76.6879 11.408 76.4959 11.472 76.3519 11.6C76.2079 11.712 76.1039 11.912 76.0399 12.2C75.9759 12.472 75.9439 12.856 75.9439 13.352V18.8C75.9439 19.552 76.0239 20.064 76.1839 20.336C76.3599 20.592 76.6159 20.72 76.9519 20.72C77.2079 20.72 77.4079 20.664 77.5519 20.552C77.6959 20.44 77.7999 20.264 77.8639 20.024C77.9279 19.784 77.9599 19.48 77.9599 19.112V17.432H81.4159V18.944C81.4159 19.872 81.2479 20.664 80.9119 21.32C80.5759 21.96 80.0719 22.44 79.3999 22.76C78.7279 23.08 77.9039 23.24 76.9279 23.24ZM83.5293 23V3.56H87.0333V14.504L90.0813 9.128H94.0653L90.7293 14.768L94.0173 23H90.1533L87.9693 16.304L87.0333 17.72V23H83.5293ZM95.5812 23V3.56H98.3412L102.661 13.688V3.56H105.925V23H103.285L98.9652 12.248V23H95.5812ZM113.046 23.24C112.054 23.24 111.206 23.064 110.502 22.712C109.798 22.344 109.262 21.816 108.894 21.128C108.542 20.44 108.366 19.584 108.366 18.56V13.568C108.366 12.544 108.542 11.688 108.894 11C109.262 10.312 109.798 9.792 110.502 9.44C111.206 9.072 112.054 8.888 113.046 8.888C114.038 8.888 114.886 9.072 115.59 9.44C116.294 9.792 116.83 10.312 117.198 11C117.566 11.688 117.75 12.544 117.75 13.568V18.56C117.75 19.584 117.566 20.44 117.198 21.128C116.83 21.816 116.294 22.344 115.59 22.712C114.886 23.064 114.038 23.24 113.046 23.24ZM113.07 20.792C113.374 20.792 113.606 20.712 113.766 20.552C113.926 20.376 114.03 20.144 114.078 19.856C114.126 19.552 114.15 19.208 114.15 18.824V13.328C114.15 12.928 114.126 12.584 114.078 12.296C114.03 12.008 113.926 11.776 113.766 11.6C113.606 11.424 113.374 11.336 113.07 11.336C112.766 11.336 112.534 11.424 112.374 11.6C112.214 11.776 112.102 12.008 112.038 12.296C111.99 12.584 111.966 12.928 111.966 13.328V18.824C111.966 19.208 111.99 19.552 112.038 19.856C112.102 20.144 112.214 20.376 112.374 20.552C112.534 20.712 112.766 20.792 113.07 20.792ZM121.319 23L119.231 9.128H122.255L123.359 17.504L124.607 9.128H127.247L128.375 17.648L129.623 9.128H132.455L130.319 23H127.223L125.879 14.768L124.415 23H121.319Z" fill="#181816"/>
</svg>
